<svg width="28" height="27" fill="none" xmlns="http://www.w3.org/2000/svg"><g filter="url(#a)"><path d="m23.026 17.05-3.71-3.7c1.002-1.3 1.704-3 1.704-4.9 0-4.4-3.61-8-8.023-8-4.412 0-8.022 3.7-8.022 8.1 0 4.4 3.61 8 8.022 8 1.805 0 3.51-.6 4.914-1.7l3.71 3.7 1.405-1.5Zm-10.029-2.5c-3.309 0-6.017-2.7-6.017-6s2.708-6 6.017-6c3.31 0 6.017 2.7 6.017 6s-2.707 6-6.017 6Z" fill="#000"/><path d="m18.92 13.045-.27.348.312.311 3.368 3.358-.72.77-3.346-3.336-.313-.312-.348.272a7.418 7.418 0 0 1-4.606 1.594c-4.137 0-7.522-3.378-7.522-7.5 0-4.13 3.393-7.6 7.522-7.6 4.138 0 7.523 3.377 7.523 7.5 0 1.775-.656 3.37-1.6 4.595ZM6.48 8.55c0 3.577 2.933 6.5 6.517 6.5 3.584 0 6.517-2.923 6.517-6.5 0-3.578-2.933-6.5-6.517-6.5-3.584 0-6.517 2.922-6.517 6.5Z" stroke="#000"/><path d="m18.92 13.045-.27.348.312.311 3.368 3.358-.72.77-3.346-3.336-.313-.312-.348.272a7.418 7.418 0 0 1-4.606 1.594c-4.137 0-7.522-3.378-7.522-7.5 0-4.13 3.393-7.6 7.522-7.6 4.138 0 7.523 3.377 7.523 7.5 0 1.775-.656 3.37-1.6 4.595ZM6.48 8.55c0 3.577 2.933 6.5 6.517 6.5 3.584 0 6.517-2.923 6.517-6.5 0-3.578-2.933-6.5-6.517-6.5-3.584 0-6.517 2.922-6.517 6.5Z" stroke="#000" stroke-opacity=".2"/></g><defs><filter id="a" x=".975" y=".45" width="26.051" height="26.1" filterUnits="userSpaceOnUse" color-interpolation-filters="sRGB"><feFlood flood-opacity="0" result="BackgroundImageFix"/><feColorMatrix in="SourceAlpha" values="0 0 0 0 0 0 0 0 0 0 0 0 0 0 0 0 0 0 127 0" result="hardAlpha"/><feOffset dy="4"/><feGaussianBlur stdDeviation="2"/><feComposite in2="hardAlpha" operator="out"/><feColorMatrix values="0 0 0 0 0 0 0 0 0 0 0 0 0 0 0 0 0 0 0.25 0"/><feBlend in2="BackgroundImageFix" result="effect1_dropShadow_20204_262"/><feBlend in="SourceGraphic" in2="effect1_dropShadow_20204_262" result="shape"/></filter></defs></svg>